<?xml version="1.0" encoding="utf-8"?>
<svg viewBox="0 0 384 512" xmlns="http://www.w3.org/2000/svg">
  <defs>
    <linearGradient gradientUnits="userSpaceOnUse" x1="192" y1="0" x2="192" y2="510.675" id="gradient-0">
      <stop offset="0" style="stop-color: #f5aeb0;"/>
      <stop offset="1" style="stop-color: #ff5154;"/>
    </linearGradient>
  </defs>
  <path d="M 384 192 C 384 279.4 267 435 215.7 499.2 C 203.4 514.5 180.6 514.5 168.3 499.2 C 117 435 0 279.4 0 192 C 0 86 86 0 192 0 C 298 0 384 86 384 192 Z M 156.402 106.453 C 150.807 103.24 143.777 103.134 138.069 106.135 C 132.361 109.136 128.807 114.786 128.807 120.93 L 128.807 245.216 C 128.807 251.36 132.361 257.008 138.069 260.01 C 143.777 263.012 150.807 262.87 156.402 259.692 L 265.269 197.549 C 270.674 194.477 273.963 189.005 273.963 183.072 C 273.963 177.141 270.674 171.704 265.269 168.596 Z" style="fill: url(#gradient-0);"/>
</svg>