<?xml version="1.0" encoding="utf-8"?>
<svg viewBox="0 0 384 512" xmlns="http://www.w3.org/2000/svg">
  <defs>
    <linearGradient gradientUnits="userSpaceOnUse" x1="192" y1="0" x2="192" y2="510.675" id="gradient-0">
      <stop offset="0" style="stop-color: rgba(236, 240, 254, 1)"/>
      <stop offset="1" style="stop-color: rgba(139, 163, 249, 1)"/>
    </linearGradient>
  </defs>
  <path d="M 384 192 C 384 279.4 267 435 215.7 499.2 C 203.4 514.5 180.6 514.5 168.3 499.2 C 117 435 0 279.4 0 192 C 0 86 86 0 192 0 C 298 0 384 86 384 192 Z M 111.856 120.372 C 108.324 120.372 105.197 122.693 104.154 126.055 L 95.443 154.339 C 95.242 155.012 95.141 155.717 95.141 156.391 C 95.141 160.292 98.269 163.42 102.17 163.42 L 133.784 163.42 L 142.393 120.372 Z M 186.619 163.42 L 186.619 120.372 L 153.358 120.372 L 144.748 163.42 Z M 197.38 163.42 L 239.253 163.42 L 230.643 120.372 L 197.38 120.372 Z M 250.217 163.42 L 281.831 163.42 C 285.698 163.42 288.859 160.292 288.859 156.391 C 288.859 155.684 288.758 155.012 288.556 154.339 L 279.845 126.055 C 278.804 122.693 275.676 120.372 272.144 120.372 L 241.606 120.372 Z M 105.903 174.182 L 107.248 184.944 L 105.903 184.944 C 99.951 184.944 95.141 189.754 95.141 195.707 C 95.141 201.659 99.951 206.468 105.903 206.468 L 109.939 206.468 L 116.665 260.279 C 116.665 266.231 121.474 271.041 127.427 271.041 C 133.38 271.041 138.189 266.231 138.189 260.279 L 245.81 260.279 C 245.81 266.231 250.62 271.041 256.572 271.041 C 262.525 271.041 267.335 266.231 267.335 260.279 L 274.061 206.468 L 278.097 206.468 C 284.05 206.468 288.859 201.659 288.859 195.707 C 288.859 189.754 284.05 184.944 278.097 184.944 L 276.751 184.944 L 278.097 174.182 Z" style="fill: url(#gradient-0);"/>
</svg>