<?xml version="1.0" encoding="utf-8"?>
<svg viewBox="0 0 384 512" xmlns="http://www.w3.org/2000/svg" xmlns:xlink="http://www.w3.org/1999/xlink" xmlns:bx="https://boxy-svg.com">
  <defs>
    <linearGradient id="gradient-2-0" gradientTransform="matrix(0.006489, 1.002029, -1.329867, 0.00487, 0, 0)" xlink:href="#gradient-2"/>
    <linearGradient id="gradient-2" bx:pinned="true">
      <stop offset="0" style="stop-color: #c6f0eb;"/>
      <stop offset="1" style="stop-color: #69d1c5;"/>
    </linearGradient>
  </defs>
  <path d="M 168.3 499.2 C 117 435 0 279.4 0 192 C 0 86 86 0 192 0 C 298 0 384 86 384 192 C 384 279.4 267 435 215.7 499.2 C 203.4 514.5 180.6 514.5 168.3 499.2 Z M 186.698 180.689 C 215.682 180.689 239.173 157.197 239.173 128.213 C 239.173 99.228 215.682 75.737 186.698 75.737 C 157.713 75.737 134.222 99.228 134.222 128.213 C 134.222 157.197 157.713 180.689 186.698 180.689 Z M 167.962 200.367 C 127.58 200.367 94.865 233.082 94.865 273.464 C 94.865 280.188 100.318 285.64 107.041 285.64 L 266.354 285.64 C 273.077 285.64 278.53 280.188 278.53 273.464 C 278.53 233.082 245.814 200.367 205.433 200.367 Z" style="stroke: rgb(186, 218, 85); stroke-width: 0px; fill: url(#gradient-2-0);"/>
</svg>