<?xml version="1.0" encoding="utf-8"?>
<svg viewBox="0 0 384 512" xmlns="http://www.w3.org/2000/svg">
  <defs>
    <linearGradient id="grad1" x1="0%" y1="0%" x2="0%" y2="100%">
      <stop offset="0" style="stop-color:#f5db4d;stop-opacity:1"/>
      <stop offset="1" style="stop-color:#e0a909;stop-opacity:1"/>
    </linearGradient>
  </defs>
  <path fill="url(#grad1)" d="M 168.3 499.2 C 117 435 0 279.4 0 192 C 0 86 86 0 192 0 C 298 0 384 86 384 192 C 384 279.4 267 435 215.7 499.2 C 203.4 514.5 180.6 514.5 168.3 499.2 Z M 203.829 84.92 C 201.648 80.391 197.035 77.509 191.969 77.509 C 186.905 77.509 182.334 80.391 180.11 84.92 L 153.633 139.399 L 94.501 148.128 C 89.559 148.87 85.441 152.329 83.918 157.065 C 82.396 161.8 83.63 167.029 87.172 170.53 L 130.08 212.984 L 119.95 272.981 C 119.126 277.924 121.184 282.946 125.261 285.87 C 129.338 288.794 134.732 289.165 139.179 286.817 L 192.011 258.61 L 244.842 286.817 C 249.29 289.165 254.684 288.835 258.761 285.87 C 262.838 282.904 264.897 277.924 264.073 272.981 L 253.902 212.984 L 296.81 170.53 C 300.352 167.029 301.628 161.8 300.064 157.065 C 298.498 152.329 294.423 148.87 289.481 148.128 L 230.307 139.399 Z"/>
</svg>