<?xml version="1.0" encoding="utf-8"?>
<svg viewBox="0 0 384 512" xmlns="http://www.w3.org/2000/svg">
  <defs>
    <linearGradient gradientUnits="userSpaceOnUse" x1="192" y1="0" x2="192" y2="510.675" id="gradient-0">
      <stop offset="0" style="stop-color: #d7e3fc"/>
      <stop offset="1" style="stop-color: #8ba3f9;"/>
    </linearGradient>
  </defs>
  <path d="M 384 192 C 384 279.4 267 435 215.7 499.2 C 203.4 514.5 180.6 514.5 168.3 499.2 C 117 435 0 279.4 0 192 C 0 86 86 0 192 0 C 298 0 384 86 384 192 Z M 111.856 98.995 C 108.324 98.995 105.197 101.316 104.154 104.678 L 95.443 132.962 C 95.242 133.635 95.141 134.34 95.141 135.014 C 95.141 138.915 98.269 142.043 102.17 142.043 L 133.784 142.043 L 142.393 98.995 L 111.856 98.995 Z M 186.619 142.043 L 186.619 98.995 L 153.358 98.995 L 144.748 142.043 L 186.619 142.043 Z M 197.38 142.043 L 239.253 142.043 L 230.643 98.995 L 197.38 98.995 L 197.38 142.043 Z M 250.217 142.043 L 281.831 142.043 C 285.698 142.043 288.859 138.915 288.859 135.014 C 288.859 134.307 288.758 133.635 288.556 132.962 L 279.845 104.678 C 278.804 101.316 275.676 98.995 272.144 98.995 L 241.606 98.995 L 250.217 142.043 Z M 105.903 152.805 L 107.248 163.567 L 105.903 163.567 C 99.951 163.567 95.141 168.377 95.141 174.33 C 95.141 180.282 99.951 185.091 105.903 185.091 L 109.939 185.091 L 116.665 238.902 C 116.665 244.854 121.474 249.664 127.427 249.664 C 133.38 249.664 138.189 244.854 138.189 238.902 L 245.81 238.902 C 245.81 244.854 250.62 249.664 256.572 249.664 C 262.525 249.664 267.335 244.854 267.335 238.902 L 274.061 185.091 L 278.097 185.091 C 284.05 185.091 288.859 180.282 288.859 174.33 C 288.859 168.377 284.05 163.567 278.097 163.567 L 276.751 163.567 L 278.097 152.805 L 105.903 152.805 Z" style="fill: url(#gradient-0);"/>
</svg>